<svg version="1.2" xmlns="http://www.w3.org/2000/svg" viewBox="0 0 88 88" width="150" height="150">
	<title>jquery-svg</title>
	<style>
		.s0 { fill: #0868ac } 
		.s1 { fill: #131b28 } 
		.s2 { fill: #ffffff } 
	</style>
	<g id="Layer">
		<path id="Layer" class="s0" d="m23.5 9.3c-4.4 8.7-2.4 19.2 3.1 26.9l0.6 0.8 0.2 0.2 0.5 0.7 0.2 0.2q0.1 0.1 0.2 0.3 0.1 0.1 0.2 0.2 0.1 0.1 0.2 0.2 0.1 0.1 0.1 0.2 0.1 0 0.1 0 0.1 0.1 0.2 0.2 0.1 0.1 0.1 0.2 0.1 0.1 0.2 0.2 0.1 0.1 0.2 0.2l0.2 0.2 0.6 0.6 0.3 0.3q0.4 0.3 0.8 0.7 0 0.1 0.1 0.1l0.8 0.7 0.2 0.2 0.7 0.5 0.3 0.2 0.7 0.5 0.2 0.2 0.7 0.5q0.2 0.1 0.3 0.2 0.5 0.3 1 0.6l0.3 0.2q0.1 0 0.2 0.1 0.1 0 0.2 0.1 0.1 0.1 0.2 0.1 0.1 0.1 0.2 0.1l0.4 0.3q0.1 0 0.2 0 0.1 0.1 0.2 0.1 0.1 0.1 0.1 0.1 0.1 0.1 0.2 0.1l0.3 0.1 0.8 0.4 0.2 0.1q0.1 0.1 0.3 0.1 0.1 0.1 0.2 0.1 0.1 0.1 0.3 0.1 0.1 0.1 0.2 0.2l0.3 0.1q0.1 0 0.2 0 0.1 0.1 0.3 0.1 0.1 0.1 0.2 0.1 0.1 0.1 0.2 0.1l0.2 0.1q0.5 0.2 1 0.3l0.3 0.1q0.6 0.2 1.1 0.3c9.9 2.3 20.4 0.3 26.3-7.6 0 0-7 19.3-31.2 14.8-0.4-0.1-0.7-0.2-1.1-0.3l-0.3-0.1q-0.1 0-0.2-0.1-0.2 0-0.3-0.1-0.1 0-0.3-0.1-0.1 0-0.2 0l-0.2-0.1-0.9-0.4-0.3-0.1q-0.1 0-0.2-0.1-0.2 0-0.3-0.1-0.1 0-0.2-0.1-0.2 0-0.3-0.1l-0.2-0.1-0.9-0.4-0.2-0.1-0.1-0.1-0.6-0.3q-0.2-0.1-0.4-0.2l-0.8-0.4-0.3-0.2-1-0.6-0.3-0.2q-0.3-0.2-0.6-0.5-0.1 0-0.1 0l-0.9-0.7-0.4-0.2-0.6-0.5-0.3-0.3-0.7-0.6-0.1-0.1q-0.1-0.1-0.2-0.2-0.1-0.1-0.2-0.2-0.1-0.1-0.2-0.2-0.1-0.1-0.2-0.2l-0.3-0.2-0.6-0.6-0.2-0.2q-0.1-0.1-0.2-0.2-0.1-0.1-0.2-0.2-0.1-0.1-0.1-0.2-0.1-0.1-0.2-0.2h-0.1q-0.1-0.1-0.1-0.2-0.1-0.1-0.2-0.3-0.1-0.1-0.2-0.2-0.1-0.1-0.2-0.2l-0.2-0.2-0.5-0.7-0.2-0.2q-0.3-0.4-0.6-0.8 0-0.1-0.1-0.1-0.3-0.5-0.6-0.9l-0.2-0.3-0.4-0.7-0.2-0.4-0.4-0.6q-0.1-0.2-0.2-0.4 0-0.1-0.1-0.2l-0.2-0.3-0.2-0.6c-3.9-7.7-4.5-17.2 0.5-24.5m18.5-10.4c-2.4 4.1-2.7 9.2-1.3 13.7 1.3 4.4 4.1 8.3 7.6 11.1l0.2 0.2q0.1 0.1 0.3 0.2 0.1 0 0.2 0.1 0.1 0.1 0.3 0.2 0.1 0.1 0.2 0.2l0.5 0.3q0.1 0.1 0.2 0.2 0.1 0 0.2 0.1 0.1 0.1 0.2 0.1 0.1 0.1 0.2 0.1 0.1 0.1 0.2 0.2h0.1q0.1 0.1 0.2 0.1 0 0.1 0.1 0.1 0.1 0.1 0.2 0.1 0.1 0.1 0.1 0.1l0.3 0.2q0.3 0.1 0.5 0.2 0.1 0.1 0.2 0.1 0.2 0.1 0.3 0.1 0.1 0.1 0.2 0.2 0.2 0 0.3 0.1 0.1 0 0.2 0.1 0.4 0.1 0.8 0.3l0.3 0.1q0.1 0 0.2 0.1 0.1 0 0.2 0 0.1 0.1 0.2 0.1 0.1 0 0.2 0.1 0.1 0 0.3 0.1 0.1 0 0.2 0 0.2 0.1 0.3 0.1 0.1 0.1 0.3 0.1 0.1 0 0.2 0.1c8 2.1 15.6-0.6 19.4-6.3 0 0-4.3 14.6-22.9 11.5-0.4-0.1-0.7-0.2-1.1-0.3l-0.3-0.2q-0.1 0-0.2 0-0.1 0-0.2-0.1 0 0-0.1 0-0.1-0.1-0.2-0.1l-0.4-0.1q-0.4-0.2-0.8-0.4-0.1 0-0.2-0.1-0.5-0.2-0.9-0.4-0.1 0-0.1 0l-0.5-0.3q-0.1-0.1-0.2-0.1l-0.7-0.4-0.1-0.1q-0.1 0-0.2-0.1-0.1 0-0.2-0.1 0 0-0.1-0.1-0.1-0.1-0.2-0.1-0.1-0.1-0.2-0.2-0.3-0.1-0.5-0.3-0.2-0.1-0.3-0.2-0.1-0.1-0.2-0.2-0.2-0.1-0.3-0.2-0.1-0.1-0.2-0.2l-0.3-0.1q-0.1-0.1-0.2-0.2-0.1-0.1-0.3-0.2-0.1-0.1-0.2-0.2-0.1-0.1-0.2-0.3-0.1 0-0.1 0-0.1-0.1-0.2-0.2-0.1-0.1-0.2-0.2-0.1-0.1-0.2-0.2-0.1-0.1-0.2-0.2-0.1-0.1-0.2-0.2-0.4-0.4-0.8-0.8c-0.7-0.7-1.3-1.6-1.9-2.4q-0.2-0.3-0.4-0.7-0.2-0.3-0.4-0.6-0.2-0.4-0.4-0.7-0.2-0.4-0.4-0.7c-2.8-5.6-3-12.7 0.6-18m14.6-6.8c-2.9 5.4-0.1 12 4.4 15.5q0.3 0.3 0.6 0.5 0.3 0.2 0.7 0.4 0.3 0.2 0.6 0.4 0.3 0.1 0.7 0.3 0.1 0.1 0.3 0.2 0.2 0.1 0.4 0.1 0.2 0.1 0.3 0.2 0.2 0.1 0.4 0.1c0.4 0.2 0.8 0.3 1.2 0.4 5.1 1.3 9.2 0.4 11.6-3.2-0.7 1.1-3.5 8.5-13.8 6.5q-0.3-0.1-0.6-0.2l-0.3-0.1q-0.2-0.1-0.4-0.1c-3.7-1.4-6.9-4.4-8.5-8.1-1.5-3.5-1.3-7.5 0.9-10.7"/>
		<g id="Layer">
			<path id="Layer" fill-rule="evenodd" class="s1" d="m25.4 71.3l-0.7 2.5zm3.6 5.4h-0.8zm-0.2 3.7h-4.6zm1-3.7h-0.8zm-0.5 3.4l0.8-3.1zm16.9-14.1l-1.5 7.1zm-3.8 0l-1.1 5.2z"/>
			<path id="Layer" fill-rule="evenodd" class="s2" d="m45.9 65.7q0.3 0 0.3 0.3l-3 14c0 0.2-0.2 0.4-0.4 0.4h-7.1c-4.4-0.2-4.6-3.7-3.8-7.4l1.5-7q0-0.1 0.1-0.1 0-0.1 0-0.1 0.1-0.1 0.2-0.1 0 0 0.1 0h3.3c0.1 0 0.3 0.1 0.2 0.3l-1 5-0.1 0.6-0.3 1.5c-0.5 2.2-0.7 3.7 1.5 3.7h2.3c0.1 0 0.3-0.1 0.4-0.3l2.2-10.5c0.1-0.2 0.2-0.3 0.4-0.3zm12.7 11.1c0.2 0 0.3 0.2 0.3 0.4l-0.3 1.5zm-0.4 3.3l0.3-1.5zm-0.3 0.3l-5.9 0.1z"/>
			<path id="Layer" fill-rule="evenodd" class="s1" d="m50.1 74.4h0.4c-0.2 0-0.4 0.3-0.4 0.5 0 0-0.2 1.3 0-0.5zm8.5 4.5l0.3-1.7c0-0.2-0.1-0.4-0.2-0.4zm-6.3 1.6h-0.1zm1.6 0h-0.1zm-0.7 0h-0.1zm-0.2 0h-0.1zm-0.2 0h-0.1zm0.4 0h-0.2z"/>
			<path id="Layer" fill-rule="evenodd" class="s2" d="m5.7 74.9l0.5-2.2-0.5 2.5-0.1 0.4zm6-9.3h-3.5q-0.1 0-0.2 0.1 0 0-0.1 0 0 0.1-0.1 0.1 0 0.1 0 0.2l-0.7 2.9q0 0 0 0.1 0 0.1 0.1 0.1 0 0.1 0.1 0.1c0 0 3.5 0 3.6 0 0.2 0 0.4-0.1 0.4-0.3l0.6-2.9c0.1-0.2 0-0.4-0.2-0.4zm46.6 14.6l0.2-1.3zm-57.6 6.1h2.9c-0.8 0-2.2 0-2.9 0zm53.1-5.8h-0.8zm4.1 0h-4.1zm-5.1 0.1h-0.2zm-0.5 0h-0.2zm0.2 0h-0.2zm-41.5-10l-1.1 4.7z"/>
			<path id="Layer" fill-rule="evenodd" class="s2" d="m10.7 70.2c0.2 0 0.3 0.2 0.2 0.3l-2.1 9.9c-0.9 4.4-2.4 5.9-5.2 5.9 0 0-2.9 0-3 0q0 0-0.1-0.1 0 0 0-0.1 0-0.1 0-0.1l0.7-3.1q0-0.1 0.1-0.1 0-0.1 0.1-0.1 0-0.1 0.1-0.1 0.1 0 0.1 0h1.1c1.1 0 1.8-1.9 1.8-1.9q0-0.1 0-0.2 0.1-0.1 0.1-0.1 0-0.1 0-0.2 0-0.1 0.1-0.1l0.9-4.5 0.1-0.7 1-4.4q0.1 0 0.1-0.1 0-0.1 0.1-0.1 0 0 0.1-0.1 0.1 0 0.1 0zm50.2 10.2c-0.2 0-0.3-0.2-0.3-0.4l2.7-12.4zm-54.2-9.9l-0.5 2.2zm57.9 9.6l1.1-5.4z"/>
			<path id="Layer" fill-rule="evenodd" class="s1" d="m61.2 80.4h-0.3c-0.2 0-0.3-0.2-0.2-0.4q0 0.1 0 0.2c0 0.1 0.4 0.2 0.5 0.2zm-0.5-0.4q0-0.1 0-0.3l1.3-5.9zm4-0.3l-0.1 0.3q0 0.1 0 0.2-0.1 0-0.1 0.1-0.1 0-0.1 0-0.1 0.1-0.2 0.1h-0.3c0.2 0 0.4-0.1 0.5-0.1 0.1 0 0.2-0.4 0.3-0.6zm10.9-11.3l0.2 0.6q0 0.3-0.3 0.3zm-10.5 9l0.5-2.3z"/>
			<path id="Layer" fill-rule="evenodd" class="s1" d="m65.6 75l0.1-0.6v0.3zm0.2-0.6l0.5-2.4-0.6 2.4zm-2.6-6.8l-1.3 6.2 1.3-5.9 0.1-0.5zm1.4 12.1l0.4-2.3zm10.9-12l0.1 0.6z"/>
			<path id="Layer" fill-rule="evenodd" class="s2" d="m75.8 69c0.1 0.2-0.1 0.3-0.2 0.3h-8.4c-0.2 0-0.4 0.2-0.4 0.3l-1.1 5.1-1 5c-0.1 0.2-0.2 0.5-0.3 0.6-0.1 0-0.3 0.1-0.5 0.1h-2.7c-0.1 0-0.5-0.1-0.5-0.2 0-0.1 0-0.3 0-0.5l2.6-12.1 0.2-1 0.1-0.6q0.1 0 0.1-0.1 0-0.1 0.1-0.1 0 0 0.1-0.1c0.1 0 8.6 0 8.6 0 1.8 0 2.6 0.7 2.9 1.8l0.2 0.9zm11.8-5.4c0.2 0 0.2 0.1 0.1 0.2l-9.6 12.8q-0.1 0.1-0.1 0.1 0 0.1-0.1 0.2 0 0 0 0.1-0.1 0.1-0.1 0.2l-0.8 2.9c0 0.1-0.2 0.3-0.4 0.3-0.1 0-3.8 0-3.9 0q0-0.1 0-0.1-0.1-0.1-0.1-0.1 0-0.1 0-0.1l0.8-2.9c0-0.2 0-0.5 0-0.7l-1.7-5.9c-0.1-0.2 0-0.4 0.2-0.4h3.8q0.1 0 0.1 0.1 0.1 0 0.2 0 0 0.1 0.1 0.1 0 0.1 0 0.2l0.4 1.9c0.1 0.1 0.2 0.2 0.3 0l5.9-8.7q0.1 0 0.1-0.1 0.1 0 0.2-0.1 0 0 0.1 0c0.1 0 4.5 0 4.5 0zm-27.9 10.5q0 0.1 0 0.1c-0.1 0.2-0.2 0.2-0.3 0.3h-9.3c-0.2 1.7 0.5 2.4 2.8 2.4h5.7q0.3 0 0.3 0.3l-0.6 3q0 0.1-0.1 0.1 0 0.1-0.1 0.1 0 0.1-0.1 0.1c-0.1 0-4.2 0-4.2 0l-0.8 0.1h-1c-6.4 0-6.5-3.7-5.7-7.6 0.8-3.8 2.3-7.5 8.5-7.5 5.9 0 6.3 3.5 4.9 8.6zm-5.7-5.1c-1.8 0-2.7 0.8-3.2 2v0.1c0 0.2 0.1 0.3 0.2 0.3h4.9c0.1 0 0.3-0.2 0.3-0.3 0.2-1.1-0.2-2.1-2.2-2.1zm-26 7.4q0 0.1 0 0.1c0 0.1 0.1 0.2 0.2 0.2h1.5q0.1 0 0.2 0.1 0 0 0.1 0 0 0.1 0 0.1 0 0.1 0 0.1l-0.8 3.1q0 0.1-0.1 0.1 0 0.1-0.1 0.1 0 0.1-0.1 0.1-0.1 0-0.1 0l-9.6 0.1c-6.2 0-7.6-4.4-6.5-9.3 1-4.9 3.7-9.5 10-9.5 6.3 0 8 4.8 7.4 8-0.4 2.5-2.1 6.7-2.1 6.7zm-6.1-10.8c-2.8 0.2-4.1 2.3-4.8 5.6-0.7 3.2 0 5.4 2.8 5.4 0.1 0 3.8 0 3.8 0q0.1-0.1 0.1-0.1 0.1 0 0.1-0.1 0.1-0.1 0.1-0.1l1.4-5 0.1-0.3c0.9-3 0.1-5.7-3.6-5.4z"/>
			<path id="Layer" class="s1" d="m59.1 73.6c0 0.1-0.1 0.2-0.2 0.2-0.1 0-0.2-0.1-0.2-0.2 0-0.1 0.1-0.2 0.2-0.2 0.1 0 0.2 0.1 0.2 0.2z"/>
		</g>
	</g>
</svg>