<svg version="1.2" xmlns="http://www.w3.org/2000/svg" viewBox="0 0 259 259" width="150" height="150">
	<title>sql-svg</title>
	<style>
		.s0 { fill: #056dff } 
		.s1 { fill: #e7e7e7 } 
	</style>
	<g id="Layer_x0020_1">
		<path id="database-solid.svg" fill-rule="evenodd" class="s0" d="m231.2 36.8v46.9c0 20.2-45.7 36.5-102.1 36.5-56.4 0-102.1-16.3-102.1-36.5v-46.9c0-20.1 45.7-36.4 102.1-36.4 56.4 0 102.1 16.3 102.1 36.4zm-102.1-34.3c-53.5 0-96.9 15.8-96.9 35.4 0 19.6 43.4 35.5 96.9 35.5 53.5 0 96.9-15.9 96.9-35.5 0-19.6-43.4-35.4-96.9-35.4zm77.1 120.7c9.1-3.3 18.2-7.7 25-13v46.4c0 20.2-45.7 36.5-102.1 36.5-56.4 0-102.1-16.3-102.1-36.5v-46.4c6.8 5.3 15.5 9.7 25 13 20.5 7.3 47.7 11.6 77.1 11.6 29.4 0 56.7-4.3 77.1-11.6zm-154.2 72.9c20.5 7.3 47.7 11.6 77.1 11.6 29.4 0 56.7-4.3 77.1-11.6 9.1-3.3 18.2-7.7 25-13v39.2c0 20.1-45.7 36.4-102.1 36.4-56.4 0-102.1-16.3-102.1-36.4v-39.2c6.8 5.3 15.5 9.7 25 13z"/>
		<path id="id_102" fill-rule="evenodd" class="s1" d="m99.7 40.1q1.4 2.7 0.6 4.9-0.8 2.2-3.2 3.7-2.4 1.6-6.1 2.6c-2.6 0.6-5.4 1-8.6 1.2q-3.1 0.2-6 0.1-2.9-0.1-5.2-0.4-2.3-0.3-3.9-0.7-1.6-0.4-2.4-0.7-0.8-0.3-1.4-1-0.5-0.6-1-1.9-0.4-0.8-0.6-1.4-0.1-0.6-0.1-0.9 0.1-0.4 0.4-0.6 0.3-0.1 0.7-0.2 0.7 0 2.1 0.4 1.5 0.4 3.6 0.8 2.2 0.4 5 0.7 2.8 0.3 6.3 0.1 2.3-0.2 3.9-0.6 1.7-0.4 2.7-1 0.9-0.7 1.2-1.5 0.3-0.9-0.2-1.9-0.5-1.2-2-1.9-1.6-0.8-3.7-1.3-2.1-0.6-4.6-1-2.6-0.5-5.3-0.9-2.8-0.5-5.4-1.2-2.7-0.7-5-1.7-2.4-1-4.2-2.5-1.8-1.4-2.7-3.5-1.1-2.5-0.3-4.4 0.8-1.9 3-3.2 2.2-1.3 5.6-2.1 3.4-0.8 7.5-1 2.1-0.1 4.3 0 2.2 0.1 4.2 0.3 2 0.2 3.6 0.5 1.5 0.3 2.1 0.6 0.6 0.2 0.8 0.3 0.3 0.2 0.6 0.5 0.2 0.3 0.5 0.7 0.2 0.5 0.5 1.1 0.4 0.8 0.6 1.3 0.1 0.5 0.1 0.8c0 0.3-0.1 0.4-0.2 0.5q-0.2 0.2-0.7 0.2-0.5 0.1-1.8-0.2-1.3-0.3-3.1-0.7-1.8-0.3-4.1-0.5-2.3-0.3-4.8-0.2-2 0.2-3.3 0.5-1.4 0.3-2.2 0.9-0.8 0.5-0.9 1.2-0.2 0.7 0.1 1.4 0.5 1.2 2 1.9 1.5 0.8 3.6 1.3 2.1 0.5 4.7 1 2.6 0.4 5.3 0.9 2.7 0.5 5.4 1.1 2.7 0.7 5.1 1.7 2.3 1 4.1 2.5 1.9 1.4 2.8 3.4zm74.4 9.3q0.5 1 0.6 1.6 0.2 0.5 0.1 0.9-0.1 0.3-0.4 0.4-0.2 0.1-0.6 0.2-1.5 0.1-4.1-0.3-2.7-0.3-5.9-1-3.3-0.7-6.8-1.8-3.7-1.1-7-2.6c-1.2 0.5-2.7 0.9-4.5 1.3q-2.8 0.6-6.4 0.8-6.9 0.5-12.6-0.2-5.6-0.7-10.2-2.7-4.5-1.9-7.8-5.1-3.4-3.2-5.6-7.7-2-4.1-1.7-7.4 0.2-3.3 2.7-5.7 2.5-2.3 7.1-3.8 4.6-1.4 11.4-1.8 6.4-0.3 11.8 0.4 5.4 0.8 9.8 2.6 4.4 1.8 7.8 4.8 3.4 2.9 5.7 7.2 1.2 2.2 1.8 4.2 0.5 1.9 0.5 3.7-0.1 1.7-0.8 3.2-0.6 1.5-1.9 2.6c2.4 0.9 4.4 1.5 6.1 1.9q2.5 0.6 4.2 0.9 1.6 0.2 2.6 0.3 1 0.2 1.6 0.4 0.6 0.2 1.2 0.9 0.6 0.6 1.3 1.8zm-28.6-18.9q-1.4-2.6-3.2-4.6-1.8-2.1-4.3-3.5-2.5-1.4-5.7-2-3.3-0.7-7.5-0.5-4.3 0.2-6.8 1.3-2.4 1.1-3.4 2.7-1 1.6-0.7 3.8 0.3 2.1 1.4 4.4 1.4 2.8 3.3 4.9 1.8 2.2 4.3 3.7 2.5 1.5 5.9 2.1 3.3 0.7 7.7 0.4 4.4-0.3 6.8-1.4 2.4-1.1 3.4-2.8 0.9-1.7 0.5-3.9-0.4-2.2-1.7-4.6zm61.4 10.6q0.4 0.8 0.6 1.3 0.2 0.5 0.2 0.9 0 0.4-0.3 0.5-0.2 0.2-0.6 0.2-12.9 0.8-25.8 1.7-1.5 0.1-2.8-0.4-1.2-0.4-1.9-1.6-4.2-7.6-8.3-15-4.1-7.3-8.1-14.6-0.1-0.2 0-0.4 0.2-0.2 0.8-0.4c0.3-0.1 0.9-0.2 1.6-0.3q1.1-0.1 2.7-0.2c1.1 0 2-0.1 2.8 0q1.1 0 1.8 0.1 0.7 0.1 1.1 0.2 0.4 0.2 0.5 0.5 3.6 6.3 7.3 12.8 3.7 6.5 7.4 13.2 8.9-0.6 17.6-1.1 0.5 0 0.9 0.1 0.4 0.1 0.8 0.4 0.4 0.3 0.8 0.8 0.4 0.5 0.9 1.3z"/>
	</g>
</svg>