<?xml version="1.0" encoding="UTF-8"?><svg id="a" xmlns="http://www.w3.org/2000/svg" viewBox="0 0 750 500"><defs><style>.c{stroke:#a82de3;stroke-miterlimit:10;stroke-width:7px;}.c,.d{fill:#fff;}.d{font-family:ArialMT, Arial;font-size:60px;}.e{fill:#a82de3;}</style></defs><rect class="e" y="0" width="750" height="500"/><path id="b" class="c" d="M460.47,376.95l-12.58-140.12c-.34-3.83-3.55-6.76-7.39-6.76h-25.95v-11.7c0-21.81-17.74-39.55-39.55-39.55s-39.55,17.74-39.55,39.55v11.7h-25.96c-3.84,0-7.05,2.93-7.39,6.76l-12.63,140.67c-.19,2.08,.51,4.13,1.91,5.67,1.41,1.54,3.39,2.41,5.48,2.41h156.29c4.1,0,7.42-3.32,7.42-7.42,0-.41-.03-.82-.1-1.21Zm-110.18-158.58c0-13.62,11.08-24.71,24.71-24.71s24.71,11.08,24.71,24.71v11.7h-49.41v-11.7Zm-45.32,152.37l11.3-125.83h19.18v13.27c0,4.1,3.32,7.42,7.42,7.42s7.42-3.32,7.42-7.42v-13.27h49.41v13.27c0,4.1,3.32,7.42,7.42,7.42s7.42-3.32,7.42-7.42v-13.27h19.16l11.3,125.83h-140.04Z"/><text class="d" transform="translate(214.97 151.98)"><tspan x="0" y="0">Ecommerce</tspan></text></svg>