<?xml version="1.0" encoding="UTF-8"?><svg id="a" xmlns="http://www.w3.org/2000/svg" xmlns:xlink="http://www.w3.org/1999/xlink" viewBox="0 0 750 500"><defs><style>.f{font-size:70.54px;}.g,.h,.i,.j{fill:#fff;}.h{letter-spacing:0em;}.k{fill:url(#c);}.l{fill:#206dab;}.m{letter-spacing:0em;}.m,.n{fill:#4b1121;}.o{letter-spacing:-.03em;}.o,.p{font-size:80.41px;}.q{clip-path:url(#b);}.i,.r{font-family:Rubik, sans-serif;}.s{stroke:#fff;stroke-miterlimit:10;stroke-width:6px;}.s,.t{fill:none;}.u{fill:#507f3a;}.r{font-size:80px;}.j{filter:url(#d);}</style><clipPath id="b"><rect class="t" x="228.3" y="108.87" width="200.08" height="282.25" rx="9.76" ry="9.76"/></clipPath><radialGradient id="c" cx="328.34" cy="250" fx="328.34" fy="250" r="122.32" gradientTransform="matrix(1, 0, 0, 1, 0, 0)" gradientUnits="userSpaceOnUse"><stop offset="0" stop-color="#78111c"/><stop offset=".02" stop-color="#79111c"/><stop offset=".66" stop-color="#a01b26"/><stop offset="1" stop-color="#af1f2a"/></radialGradient><filter id="d" filterUnits="userSpaceOnUse"><feOffset dx="5.67" dy="5.67"/><feGaussianBlur result="e" stdDeviation="5.67"/><feFlood flood-color="#1d1d1b" flood-opacity=".2"/><feComposite in2="e" operator="in"/><feComposite in="SourceGraphic"/></filter></defs><rect class="u" width="750" height="500"/><g><g><line class="s" x1="373.44" y1="293.19" x2="373.44" y2="141.89"/><polyline class="s" points="355.84 163 373.48 180.64 391.07 163.05"/><polyline class="s" points="343.54 192.91 373.49 222.86 403.37 192.98"/><path class="s" d="M373.44,257.5s-109.07-6.53,0-154.31c0,0,116.11,137.22,0,154.31Z"/></g><text class="r" transform="translate(240.64 375.69)"><tspan class="h" x="0" y="0">E</tspan><tspan class="g" x="48" y="0">co</tspan><tspan class="n" x="138.08" y="0">b</tspan><tspan class="m" x="185.68" y="0">i</tspan><tspan class="n" x="205.2" y="0">ci</tspan></text></g><rect class="l" x="0" width="750" height="500"/><g class="q"><rect class="k" x="228.3" y="108.87" width="200.08" height="282.25"/><path class="j" d="M398.32,206.48c-2.3,3.95-4.98,2.19-4.98,2.19-2.77-2.59-13.1-6.23-17.39-7.66-.86-.29-1.76-.3-2.67-.32-1.09-.02-1.25-2.38-1.25-2.38-.41-7.62-7.01-13.84-7.01-13.84,1.57-21.84-10.42-26.37-10.42-26.37-1.15-.56-2.78-7.16-2.78-7.16,1.91-2.12,1.97-10.92,1.97-10.92,.9-2.5,0-10.78,0-10.78,.11-1.32-.9-6.87-.9-6.87-3.56-10.12-7.15-13.5-10.35-13.5-6.41,0-11.27,13.5-11.27,13.5-1.06,6.65-1.77,6.69-2,6.47-.06-.05-.13,0-.16,.08-1.88,4.88-.61,9.69-.61,9.69,1.13,3.39-.7,6.22-.7,6.22-2.24,1.5-12.69,2.83-17.63,3.39-1.47,.17-2.86,1.24-3.84,3.03-1.68,3.08-3.99,5.6-4.22,5.84-.01,.02-.03,.03-.05,.03-5.37,.75-8.49,13.84-8.49,13.84,0,0-12.16,21.32-15.72,27.54-3.57,6.22-2.61,12.29-2.61,12.29-3.82,7.91-2.69,13.14-2.69,13.14-2.08,3.11-5.04,16.11-5.04,16.11-4.1,15.32-1.69,22.65-1.02,24.24,.1,.25,.14,.54,.13,.84l-.3,7.76c-.01,.51,.03,1.03,.13,1.51,1.63,7.54,2.12,13.47,2.24,15.16,.01,.27,0,.54-.07,.79-.88,3.4,.02,19.84-.54,19.84-.43,0-.96,3.18-1.2,4.77-.08,.55-.35,.97-.68,1.11-10.47,4.33-15.57,11.99-16.69,13.85-.15,.25-.35,.4-.56,.4-2.32,.01-6.05,3.35-7.12,4.35-.19,.18-.41,.22-.61,.12-1.03-.48-4.35-1.71-6.46,1.01-1.99,2.57-4.03,2.58-4.8,2.47-.19-.03-.37,.18-.41,.49-.91,5.85-1.25,10.42-1.25,13.97v38.41h22.74c1.32-2.35-.2-7.5-.2-7.5v-17.82c0-.12,.06-.22,.13-.23,4.78-.86,1.66-5.89,1.15-6.66-.03-.04,0-.11,.03-.12,.2-.08,.84-.51,2.6-2.52,2.35-2.68,0-3.53,0-3.53h-1.93c-.11,0-.15-.22-.06-.32,1.02-1.21,1.65-4.11,1.89-5.39,.06-.34,.27-.54,.49-.46,1.03,.38,4.09,.92,8.57-3.28,5.56-5.23,12.68-8.05,12.68-8.05,2.99-1.95,5.15-5.1,6.72-8.48,4.3-9.27,9.44-18.11,15.69-26.19,1.74-2.25,3.02-4.12,3.47-4.8,0,0,4.87-7.24,6.91-13.59,.11-.36,.2-.65,.44-.71,4.79-1.21,17.97,5.64,18.85,6.1h.09c1.68-.46,4.61-8.01,5.18-9.51,.04-.1,.13-.07,.15,.04,.84,4.5,8.49,11.72,9.27,12.45,.04,.04,.06,.11,.06,.18-.34,15.72,1.97,20.4,1.97,20.4v18.88c0,.09-.01,.18-.04,.26-.86,2.32-.63,6.48-.56,7.54,.01,.16-.02,.32-.09,.44l-2.24,3.82c-.05,.09-.08,.2-.08,.33l.48,8.29c0,.12-.04,.23-.09,.32-2.45,3.66-2.7,12.29-2.7,12.29,1.67,15.07,11.03,14.56,13.35,15.56,.27,.12,.58,.02,.84,.26l2.42,2.19c.19,.17,.34,.44,.44,.77,1.49,5.3,7.42,7.95,9.66,9.07h2.54c2.67,.11,4.43-1.64,4.23-2.61,1.95-14.08-11.23-24.58-11.22-26.77,0-.11-.11-.28-.02-.37,1.57-1.71-.45-4.31-.45-4.31-5.33-.75-4.99-7.15-4.99-7.15,1.14-1.23,1.42-5.23,1.49-6.65,.01-.28-.13-.51-.3-.51h-2.05c-.1,0-.17-.14-.15-.3l.11-1.38c1.2-2.58,.15-7.93-.08-9.04-.03-.13-.02-.27,.03-.39,4.78-11.4,3.83-36.96,3.83-36.96,2.61-9.47,.44-15.54,.44-15.54l-6.95-19.07c.43-4.37-1.39-6.49-1.39-6.49-2-.85-12.42-24.44-12.42-24.44-.26-2.97-5.65-12-5.65-12-1.04-1.41,0-4.24,0-4.24,.7,0,6.08-9.32,6.08-9.32,4.16-2.26,6.25-7.34,6.25-7.34l4.87-4.24c1.04,11.58,10.77,21.75,10.77,21.75,1.74,8.47,8.86,9.61,8.86,9.61l19.63,1.41"/><path class="g" d="M342.54,108.87c-6.41,0-.42,23.99-.42,23.99-1.06,6.65-.46,6.57-.7,6.35-.06-.05-3.8,9.6-3.83,9.68-1.88,4.88-5.05,5.4-5.05,5.4,1.13,3.39-5.23,6.45-5.23,6.45-2.24,1.5,.33,18.07-4.61,18.63-1.47,.17-2.86,1.24-3.84,3.03-1.68,3.08-1.61-1.11-1.85-.87,15.18,20.16-2.4,6.74-2.42,6.74-5.37,.75,6.71-1.63,6.71-1.63,0,0-12.16,21.32-15.72,27.54-3.57,6.22-2.61,12.29-2.61,12.29-3.82,7.91-2.69,13.14-2.69,13.14-2.08,3.11-5.04,16.11-5.04,16.11-4.1,15.32-13.51,19.14-12.84,20.73,.1,.25,.14,.54,.13,.84l-.3,7.76c-.01,.51,.03,1.03,.13,1.51,1.63,7.54,2.12,13.47,2.24,15.16,.01,.27,0,.54-.07,.79-.88,3.4,1.53,8.06,.97,8.06-.43,0-.96,3.18-1.2,4.77-.08,.55-.35,.97-.68,1.11-10.47,4.33-15.57,11.99-16.69,13.85-.15,.25-.35,.4-.56,.4-2.32,.01-6.05,3.35-7.12,4.35-.19,.18-.41,.22-.61,.12-1.03-.48-14.47,14.2-16.57,16.91-1.99,2.57-4.03,2.58-4.8,2.47-.19-.03-.37,.18-.41,.49-.91,5.85-8.57-5.89-8.57-2.33V108.87h114.24Z"/><path class="g" d="M426.11,229.43s2.27,1.48,2.27-.8c0-.53-.13-1.28-.44-2.31,0,0-.96-3.39-3.57-5.94-1.02-6.16-3.57-10.74-7.26-14.12-1.79-7.44-4.11-2.33-4.11-2.33"/><circle class="g" cx="405.56" cy="224.36" r="21.74"/><path class="g" d="M308.01,276.98s2.17,7.69-2.84,19.89l-22.06-11.2"/></g><text class="i" transform="translate(500.47 373.43) rotate(-90)"><tspan class="p" x="0" y="0">N</tspan><tspan class="f" x="55.88" y="0">e</tspan><tspan class="p" x="95.38" y="0">B</tspan><tspan class="f" x="149.1" y="0">e</tspan><tspan class="o" x="188.6" y="0">A</tspan></text></svg>