<svg version="1.2" xmlns="http://www.w3.org/2000/svg" viewBox="0 0 40 40" width="150" height="150">
	<title>mongodb-svg</title>
	<style>
		.s0 { fill: #5d4037 } 
		.s1 { fill: #4caf50 } 
		.s2 { fill: #dcedc8 } 
		.s3 { fill: #81c784 } 
	</style>
	<path id="Layer" class="s0" d="m38 13.3c0 20.5-18 26.7-18 26.7 0 0-18-6.2-18-26.7 0-2.5 0.2-4.6 0.4-6.3 0.3-2.5 2-4.5 4.4-5.1 3.1-0.9 8-1.9 13.2-1.9 5.2 0 10.1 1 13.3 1.9 2.4 0.6 4.1 2.7 4.4 5.1 0.1 1.7 0.3 3.9 0.3 6.3z"/>
	<path id="Layer" fill-rule="evenodd" class="s1" d="m33.2 1.9c2.4 0.6 4.1 2.6 4.4 5.1 0.2 1.7 0.4 3.8 0.4 6.3 0 20.5-18 26.7-18 26.7 0 0-18-6.2-18-26.7 0-2.4 0.2-4.6 0.4-6.3 0.2-2.4 2-4.5 4.3-5.1 3.2-0.9 8.1-1.9 13.3-1.9 5.2 0 10.1 1 13.2 1.9zm-25.7 2.9c-1.2 0.3-2.1 1.3-2.2 2.6-0.2 1.9-0.3 3.9-0.3 5.9 0 15.5 11.5 21.8 15 23.4 3.5-1.5 15-7.8 15-23.4 0-2-0.1-4-0.3-5.9-0.2-1.3-1-2.3-2.2-2.6-3-0.8-7.6-1.8-12.5-1.8-4.9 0-9.5 1-12.5 1.8z"/>
	<path id="Layer" class="s2" d="m19 24h2v8h-2z"/>
	<path id="Layer" class="s1" d="m26 19c0 5.2-3.3 8.5-5 10l-1-3-1 3c-1.7-1.5-5-4.8-5-10 0-8 6-13 6-13 0 0 6 5 6 13z"/>
	<path id="Layer" class="s3" d="m20 26l-1 3c-1.7-1.5-5-4.8-5-10 0-8 6-13 6-13z"/>
</svg>